<svg width="20" height="20" viewBox="0 0 20 20" fill="none" xmlns="http://www.w3.org/2000/svg">
<path d="M16.5473 6.02667C16.2736 6.17212 15.9353 6.12849 15.7164 5.91515L18.4328 3.81576C19.2985 3.14667 19.4478 1.91515 18.7612 1.06667L17.9005 0L14.3731 5.90545V6.45333C14.3731 7.13212 13.8109 7.67515 13.1144 7.67515C12.4229 7.67515 11.8607 7.12727 11.8607 6.45333V4.03394H14.3731C14.3731 3.52485 14.1642 3.06424 13.8209 2.7297C13.4776 2.39515 13.0099 2.19152 12.4876 2.19152H10.9801L11.4876 2.80727C10.6667 2.80727 10 3.46182 10 4.26182C10 3.46182 9.33333 2.80727 8.50746 2.80727L9.0199 2.19152H7.51244C6.46766 2.19152 5.62189 3.02061 5.62189 4.03394H8.1393V6.45333C8.1393 7.13212 7.57711 7.67515 6.8806 7.67515C6.53731 7.67515 6.2189 7.53939 5.99005 7.31636C5.76119 7.09818 5.62189 6.79273 5.62189 6.45333V5.90545L2.09453 0L1.23383 1.06667C0.547265 1.91515 0.701493 3.14667 1.56716 3.81576L4.28358 5.91515C4.06468 6.12849 3.72139 6.17212 3.44776 6.02667L0 4.14061V5.47394C0 6.57455 0.915423 7.46667 2.04478 7.46667H3.71144C3.71144 7.74788 3.47761 7.97576 3.18905 7.97576H0.900496V8.13576C0.900496 9.03758 1.65174 9.7697 2.57711 9.7697H3.05473L4.14428 9.07636C4.14428 9.50303 3.90547 9.89576 3.52239 10.1042L2.93035 10.4242L3.25871 10.7442C3.66169 11.137 4.30846 11.1467 4.72139 10.7636L5.2388 10.2885C5.40298 10.3709 5.47761 10.5697 5.40298 10.7394L4.97512 11.7091H5.42786C6.09452 11.7091 6.63681 11.1806 6.63681 10.5309V10.3903H6.65671C7.40298 10.3903 8.00995 10.9818 8.00995 11.7091L5.56219 13.2364V14.4776L3.81592 14.9091L1.77114 11.457L0.945274 11.9224L3.79105 16.7321L4.61691 16.2667L4.27861 15.6945H5.61194C6.29851 15.6945 6.8607 15.1467 6.8607 14.4776H8.66169L9.24875 15.5248L5.67661 17.5709L6.44278 18.0218C6.97015 18.3321 7.64179 18.2497 8.07463 17.823L8.51741 17.3818H9.24875L8.87562 18.4436C8.71641 18.8848 8.90547 19.3745 9.31841 19.6121L9.99502 20L10.6716 19.6121C11.0846 19.3745 11.2687 18.8848 11.1144 18.4436L10.7413 17.3818H11.4726L11.9154 17.823C12.3483 18.2497 13.0249 18.3321 13.5522 18.0218L14.3184 17.5709L10.7463 15.5248L11.3383 14.4776H13.1393C13.1393 15.1467 13.6965 15.6945 14.3881 15.6945H16.9552C17.6617 15.6945 18.2338 15.137 18.2338 14.4533C18.2338 13.7648 17.6617 13.2121 16.9552 13.2121C16.2537 13.2121 15.6816 13.7697 15.6816 14.4533C15.6816 14.5697 15.7015 14.6861 15.7313 14.7976L14.4378 14.4776V13.2364L11.99 11.7091C11.99 10.977 12.597 10.3903 13.3433 10.3903H13.3582V10.5309C13.3582 11.1806 13.9005 11.7091 14.5672 11.7091H15.0199L14.597 10.7394C14.5224 10.5697 14.592 10.3758 14.7612 10.2885L15.2786 10.7636C15.6915 11.1467 16.3433 11.137 16.7413 10.7442L17.0697 10.4242L16.4726 10.1042C16.0896 9.89576 15.8507 9.50303 15.8507 9.07636L16.9403 9.7697H17.4179C18.3433 9.7697 19.0945 9.03758 19.0945 8.13576V7.97576H16.806C16.5174 7.97576 16.2886 7.74788 16.2886 7.46667H17.9552C19.0846 7.46667 20 6.57455 20 5.47394V4.14061L16.5473 6.02667ZM11.209 10.0945L9.99502 10.8412L8.78109 10.0945V8.25697H11.209V10.0945Z" fill="#EC6A64"/>
</svg>
