<svg width="54" height="11" viewBox="0 0 54 11" fill="none" xmlns="http://www.w3.org/2000/svg">
<path d="M49.4396 1.35869H53.8068C53.936 1.35869 54.0005 1.3137 54.0005 1.19371V0.419795C54.0005 0.299808 53.9428 0.257812 53.8068 0.257812H42.6254C42.4894 0.257812 42.4316 0.299808 42.4316 0.419795V1.19971C42.4316 1.3197 42.4962 1.36469 42.6254 1.36469H46.9926V10.4987C46.9892 10.5245 46.9926 10.5506 47.0024 10.5751C47.0122 10.5996 47.0282 10.6218 47.0492 10.64C47.0701 10.6582 47.0955 10.672 47.1234 10.6802C47.1513 10.6885 47.1809 10.691 47.2101 10.6877H49.2221C49.2513 10.691 49.2809 10.6885 49.3088 10.6802C49.3367 10.672 49.3621 10.6582 49.383 10.64C49.404 10.6218 49.42 10.5996 49.4298 10.5751C49.4396 10.5506 49.4429 10.5245 49.4396 10.4987V1.35869Z" fill="#212121"/>
<path d="M42.0673 9.75524V10.5292C42.0673 10.6521 42.0095 10.6911 41.8736 10.6911H32.5953C32.456 10.6911 32.3574 10.6401 32.3574 10.4962V0.45325C32.3574 0.309265 32.456 0.258271 32.5953 0.258271H34.5869C34.6161 0.254914 34.6457 0.257465 34.6736 0.265729C34.7015 0.273993 34.7269 0.287754 34.7479 0.305967C34.7688 0.324181 34.7848 0.346369 34.7946 0.370848C34.8044 0.395328 34.8078 0.421456 34.8044 0.447251V9.59926H41.8736C42.0027 9.59926 42.0673 9.64425 42.0673 9.76124" fill="#212121"/>
<path d="M22.0257 10.9911C18.5523 10.9911 16.248 9.63225 16.248 6.4916V0.45325C16.248 0.309265 16.3466 0.258271 16.4859 0.258271H18.4775C18.5067 0.254914 18.5364 0.257465 18.5642 0.265729C18.5921 0.273993 18.6175 0.287754 18.6385 0.305967C18.6594 0.324181 18.6754 0.346369 18.6852 0.370848C18.695 0.395328 18.6984 0.421456 18.6951 0.44725V6.51859C18.6951 8.65436 19.5141 9.95022 22.0393 9.95022C24.5645 9.95022 25.3869 8.65436 25.3869 6.51859V0.44725C25.3839 0.422555 25.387 0.397577 25.3961 0.374054C25.4051 0.350531 25.4199 0.329029 25.4393 0.311043C25.4587 0.293056 25.4823 0.279018 25.5085 0.269905C25.5346 0.260791 25.5628 0.256821 25.5909 0.258271H27.5824C27.7218 0.258271 27.8203 0.309265 27.8203 0.45325V6.50059C27.8203 9.58726 25.4991 11.0001 22.0427 11.0001" fill="#212121"/>
<path d="M7.47696 9.89893C8.95961 9.93596 10.4 9.46017 11.4907 8.57307C11.5079 8.55318 11.53 8.53705 11.5553 8.52595C11.5807 8.51485 11.6086 8.50907 11.6369 8.50907C11.6652 8.50907 11.6931 8.51485 11.7184 8.52595C11.7438 8.53705 11.7659 8.55318 11.783 8.57307L12.2928 9.02902C12.3812 9.10701 12.4118 9.182 12.2928 9.28999C11.0285 10.4149 9.1219 10.9788 7.31043 10.9788C3.32045 10.9908 0 8.96003 0 5.4954C0 2.03078 3.32045 0 7.30703 0C9.12869 0 11.0455 0.560939 12.2996 1.69782C12.405 1.79381 12.4152 1.8388 12.2996 1.94079L11.834 2.37574C11.8185 2.39466 11.7986 2.41046 11.7756 2.42208C11.7526 2.4337 11.7271 2.44088 11.7008 2.44315C11.6744 2.44542 11.6478 2.44272 11.6228 2.43524C11.5977 2.42775 11.5747 2.41565 11.5553 2.39974C11.009 1.9518 10.3668 1.6046 9.66652 1.37848C8.96622 1.15236 8.22183 1.05187 7.47696 1.08288C4.37402 1.16987 2.55576 2.93968 2.54897 5.4954C2.54217 8.05113 4.37402 9.81794 7.47696 9.89893Z" fill="#212121"/>
</svg>
