<svg width="25" height="7" viewBox="0 0 25 7" fill="none" xmlns="http://www.w3.org/2000/svg">
<path fill-rule="evenodd" clip-rule="evenodd" d="M24.8627 3.16392C25.0458 3.34953 25.0458 3.65047 24.8627 3.83608L21.8796 6.86079C21.6965 7.0464 21.3997 7.0464 21.2167 6.86079C21.0336 6.67518 21.0336 6.37424 21.2167 6.18863L23.3996 3.97529L10.4687 3.97529C10.2099 3.97529 10 3.76249 10 3.5C10 3.23751 10.2099 3.02471 10.4687 3.02471L23.3996 3.02471L21.2167 0.811368C21.0336 0.625756 21.0336 0.324821 21.2167 0.139209C21.3997 -0.0464018 21.6965 -0.0464018 21.8796 0.139209L24.8627 3.16392Z" fill="#D0D0D0"/>
<path fill-rule="evenodd" clip-rule="evenodd" d="M0.137294 3.83608C-0.0457639 3.65047 -0.045764 3.34953 0.137294 3.16392L3.1204 0.139208C3.30346 -0.0464034 3.60026 -0.0464035 3.78331 0.139208C3.96637 0.324819 3.96637 0.625755 3.78331 0.811366L1.60041 3.02471L14.5313 3.02471C14.7901 3.02471 15 3.2375 15 3.5C15 3.76249 14.7901 3.97528 14.5313 3.97528L1.60041 3.97529L3.78331 6.18863C3.96637 6.37424 3.96637 6.67518 3.78331 6.86079C3.60026 7.0464 3.30346 7.0464 3.1204 6.86079L0.137294 3.83608Z" fill="#D0D0D0"/>
</svg>
