<svg width="10" height="17" viewBox="0 0 10 17" fill="none" xmlns="http://www.w3.org/2000/svg">
<g clip-path="url(#clip0_2220_10470)">
<path d="M5.02005 8.73409C7.47072 8.73409 9.46854 6.77284 9.46854 4.36704C9.46854 1.96125 7.47072 0 5.02005 0C2.54275 0 0.544922 1.96125 0.544922 4.36704C0.544922 6.77284 2.54275 8.73409 5.02005 8.73409ZM5.02005 2.56269C6.03229 2.56269 6.85805 3.37334 6.85805 4.36704C6.85805 5.36073 6.03229 6.17138 5.02005 6.17138C4.00782 6.17138 3.18205 5.36073 3.18205 4.36704C3.15542 3.37334 3.98119 2.56269 5.02005 2.56269Z" fill="#EC6A64"/>
<path d="M6.80544 12.3163C7.71112 12.1071 8.59016 11.7671 9.38929 11.2703C10.002 10.9042 10.1884 10.0936 9.78885 9.49211C9.41593 8.89065 8.59016 8.7076 7.9775 9.09986C6.16613 10.2243 3.79539 10.2243 1.98402 9.09986C1.37135 8.73376 0.572229 8.89065 0.172664 9.49211C-0.173625 10.0936 0.0128386 10.878 0.625505 11.2441C1.42463 11.741 2.30367 12.0809 3.20935 12.2902L0.732055 14.7221C0.22594 15.219 0.22594 16.0296 0.732055 16.5264C0.998432 16.788 1.31809 16.8925 1.66438 16.8925C2.01066 16.8925 2.33032 16.7618 2.5967 16.5264L5.04735 14.1207L7.49801 16.5264C8.00414 17.0232 8.8299 17.0232 9.33601 16.5264C9.84213 16.0296 9.84213 15.219 9.33601 14.7221L6.80544 12.3163Z" fill="#EC6A64"/>
</g>
<defs>
<clipPath id="clip0_2220_10470">
<rect width="10" height="17" fill="white"/>
</clipPath>
</defs>
</svg>
