<svg width="9" height="12" viewBox="0 0 9 12" fill="none" xmlns="http://www.w3.org/2000/svg">
<path fill-rule="evenodd" clip-rule="evenodd" d="M5.97095 11.7614C5.66195 12.0795 5.16097 12.0795 4.85197 11.7614L0.52072 7.30125C-0.173573 6.5863 -0.173573 5.4137 0.52072 4.69875L4.85197 0.238643C5.16097 -0.0795479 5.66195 -0.0795475 5.97095 0.238643C6.27995 0.556834 6.27995 1.07272 5.97095 1.39091L1.6397 5.85103C1.5634 5.92959 1.5634 6.07041 1.6397 6.14897L5.97095 10.6091C6.27995 10.9273 6.27995 11.4432 5.97095 11.7614Z" fill="#212121" fill-opacity="0.4"/>
<path fill-rule="evenodd" clip-rule="evenodd" d="M9 6.00034C9 6.45033 8.64575 6.81512 8.20876 6.81512L1.49488 6.81512C1.05789 6.81512 0.70364 6.45033 0.703639 6.00034C0.70364 5.55035 1.05789 5.18556 1.49488 5.18556L8.20876 5.18556C8.64575 5.18556 9 5.55035 9 6.00034Z" fill="#212121" fill-opacity="0.4"/>
</svg>
