<svg width="35" height="30" viewBox="0 0 35 30" fill="none" xmlns="http://www.w3.org/2000/svg">
<path fill-rule="evenodd" clip-rule="evenodd" d="M0.518709 8.31336H7.9338C8.21939 8.31336 8.45251 8.55153 8.45251 8.84255V11.2609C8.45251 11.5519 8.21939 11.7894 7.9338 11.7894H6.39903V18.3635H7.93441C8.21939 18.3635 8.45312 18.6017 8.45373 18.8933V21.3117C8.45308 21.4518 8.39814 21.5859 8.30087 21.6849C8.2036 21.7839 8.07189 21.8397 7.93441 21.8402H0.518709C0.381238 21.8399 0.249489 21.7841 0.152283 21.6851C0.0550756 21.586 0.000322325 21.4517 0 21.3117V18.8933C0 18.6017 0.233114 18.3635 0.518709 18.3635H2.1505V11.7888H0.519319C0.381791 11.7885 0.24998 11.7327 0.152676 11.6337C0.055372 11.5347 0.000483309 11.4004 0 11.2603V8.84193C0 8.55091 0.233114 8.31336 0.518709 8.31336ZM28.1408 22.066C24.3628 22.066 21.2811 19.7496 21.2811 15.2282C21.2811 10.7068 24.3628 8.38985 28.1408 8.38985C31.9183 8.38985 35 10.7068 35 15.2282C35 19.7496 31.9189 22.066 28.1408 22.066ZM30.1058 15.2282C30.1058 12.7545 29.6677 11.4879 28.1408 11.4879C26.6134 11.4879 26.1752 12.7552 26.1752 15.2282C26.1752 17.7013 26.6134 18.9692 28.1408 18.9692C29.6677 18.9686 30.1058 17.7006 30.1058 15.2282ZM15.5515 13.4522C14.295 13.0922 13.0177 13.0089 13.0727 12.0009C13.0928 11.634 13.3729 11.2229 14.3334 11.2205C14.9333 11.2192 15.939 11.4207 16.7183 11.9225C17.522 12.4399 18.1011 13.2141 18.6863 13.2141H20.121C20.5451 13.2141 20.8624 12.5891 20.8624 12.1563V9.35868C20.8624 8.8612 20.5335 8.70077 20.1765 8.70512L18.7724 8.72254C17.8466 8.73435 18.2652 9.47993 17.8594 9.63415C16.8049 10.0365 16.8098 8.48126 13.9984 8.44333C10.8264 8.40104 8.95352 10.2846 9.00051 12.4399C9.05909 15.1536 11.0711 16.1467 13.5664 16.9762C14.807 17.3891 16.8458 17.5993 16.7903 18.6073C16.7701 18.9742 16.49 19.3858 15.5295 19.3883C14.9296 19.3883 13.924 19.1881 13.1447 18.6863C12.341 18.1689 11.7613 17.3941 11.1766 17.3941H9.74195C9.31722 17.3941 9.00051 18.0196 9.00051 18.4518V21.2501C9.00051 21.7482 9.32943 21.9086 9.68642 21.9037L11.0906 21.8869C12.0163 21.8744 11.5983 21.1288 12.0041 20.9746C13.0586 20.5729 13.0531 22.1275 15.8645 22.1648C19.0372 22.2071 20.9094 20.3236 20.8631 18.1676C20.8039 15.4539 18.8059 14.3856 15.5515 13.4522ZM26.077 3.84669C25.6919 4.30126 25.1354 4.71789 24.4434 5.08105C24.9365 5.79024 25.3656 6.54346 25.7255 7.33148H25.0652C24.7311 6.63698 24.3401 5.97238 23.8966 5.34471C23.5396 5.50203 23.1539 5.64754 22.7444 5.77813C22.2868 5.92426 21.798 6.0536 21.2829 6.16242C21.3934 6.4808 21.4983 6.81162 21.5966 7.15426L21.6466 7.33148H21.0278L21.0254 7.32278C20.9248 6.97075 20.8137 6.62195 20.6922 6.27684C19.6133 6.46345 18.5217 6.56346 17.4274 6.57595V7.33148H16.8306V6.57595C15.7365 6.56377 14.645 6.46376 13.5664 6.27684C13.444 6.62503 13.332 6.97695 13.2307 7.3321H12.6119C12.6278 7.27241 12.6449 7.21395 12.662 7.15488C12.7602 6.81224 12.8652 6.4808 12.9763 6.16242C12.4346 6.04901 11.8994 5.90535 11.3731 5.73211C11.0306 5.61956 10.6935 5.49028 10.3632 5.34471C9.9429 5.93936 9.56968 6.56711 9.24704 7.22204L9.19334 7.33148H8.53306C8.89347 6.54362 9.32278 5.79043 9.81579 5.08105C9.12439 4.71789 8.56784 4.30188 8.18278 3.84669C6.98768 4.83421 5.95586 6.01077 5.12667 7.33148H4.42428C7.02514 2.94379 11.7503 0 17.1296 0C22.5089 0 27.234 2.94379 29.8349 7.33148H29.1331C28.3034 6.01119 27.2716 4.83471 26.077 3.84669ZM13.2917 1.14667C13.5499 1.40784 13.9258 1.64165 14.3878 1.83194C15.1329 2.13913 16.0873 2.32381 17.1296 2.32381C18.095 2.32381 18.9853 2.16587 19.7024 1.89848C20.2406 1.69824 20.6769 1.44018 20.9674 1.14667C19.7457 0.796577 18.4581 0.608778 17.129 0.608778C15.7999 0.608778 14.5129 0.796577 13.2917 1.14667ZM13.1984 1.85743C12.9993 1.7109 12.8209 1.53724 12.6681 1.34131C11.2263 1.82899 9.87041 2.54887 8.65206 3.47359C9.00173 3.8809 9.52104 4.25773 10.1752 4.58917C11.0546 3.44561 12.0761 2.51472 13.1984 1.85743ZM14.8912 2.64219C14.645 2.57454 14.4029 2.4921 14.1662 2.39532C14.0378 2.34245 13.9114 2.28458 13.7873 2.22183C12.6559 2.82377 11.6227 3.72108 10.7354 4.84786C10.9942 4.9573 11.2688 5.0599 11.558 5.15567C12.0615 5.32294 12.6083 5.46845 13.1886 5.58785C13.6707 4.35163 14.248 3.34549 14.8912 2.64219ZM16.8306 2.927C16.4119 2.91423 15.9946 2.87101 15.582 2.79765C14.9065 3.41949 14.2944 4.41817 13.7836 5.69853C14.7313 5.85897 15.7578 5.95349 16.8306 5.96841V2.927ZM18.6766 2.79765C18.2637 2.87073 17.8462 2.91395 17.4274 2.927V5.96841C18.4485 5.95666 19.4672 5.86644 20.4749 5.69853C19.9642 4.41879 19.3521 3.41949 18.6766 2.79765ZM20.4713 2.22121C20.2949 2.31137 20.1051 2.39346 19.905 2.46808C19.7341 2.53151 19.5547 2.58996 19.368 2.64219C20.0112 3.34549 20.5885 4.35163 21.0705 5.5866C21.5758 5.4837 22.0754 5.35419 22.5675 5.19858C22.8914 5.09605 23.2107 4.97882 23.5243 4.84723C22.6364 3.72046 21.6033 2.82315 20.4713 2.22121ZM21.5911 1.34193C21.4382 1.53801 21.2596 1.71169 21.0602 1.85805C22.1824 2.51596 23.2046 3.44623 24.0827 4.58979C24.7369 4.25897 25.2562 3.88214 25.6065 3.47483C24.3885 2.54969 23.0328 1.82958 21.5911 1.34193ZM26.077 26.1539C25.6919 25.6987 25.1354 25.2821 24.4434 24.919C24.9365 24.2102 25.3656 23.4574 25.7255 22.6698H25.0652C24.7311 23.3645 24.3401 24.0293 23.8966 24.6572C23.5202 24.4923 23.1356 24.3477 22.7444 24.2237C22.2636 24.0715 21.7759 23.9431 21.2829 23.8388C21.3934 23.5204 21.4983 23.1902 21.5966 22.8476L21.6466 22.6704H21.0278L21.0254 22.6791C20.9247 23.0311 20.8136 23.3799 20.6922 23.725C19.6133 23.538 18.5217 23.4382 17.4274 23.4265V22.671H16.8306V23.4265C15.7365 23.4382 14.645 23.538 13.5664 23.725C13.4437 23.3771 13.3318 23.0254 13.2307 22.6704H12.6119C12.6278 22.7301 12.6449 22.7879 12.662 22.8476C12.7602 23.1902 12.8652 23.5217 12.9763 23.8401C12.4075 23.9601 11.8705 24.105 11.3731 24.2698C11.0161 24.3873 10.6787 24.5172 10.3632 24.6572C9.94303 24.0622 9.56982 23.4343 9.24704 22.7792L9.19334 22.6698H8.53306C8.89346 23.4572 9.32277 24.21 9.81579 24.919C9.12439 25.2821 8.56784 25.6987 8.18278 26.1539C6.9874 25.1667 5.95553 23.9901 5.12667 22.6691H4.42428C7.02514 27.0562 11.7503 30 17.1296 30C22.5089 30 27.234 27.0562 29.8349 22.6691H29.1331C28.3037 23.9897 27.2719 25.1662 26.077 26.1539ZM13.2917 28.854C13.5499 28.5928 13.9258 28.3596 14.3878 28.1687C15.1329 27.8615 16.0873 27.6781 17.1296 27.6781C18.095 27.6781 18.9853 27.836 19.7024 28.1022C20.2406 28.3024 20.6769 28.5611 20.9674 28.854C19.7457 29.2047 18.4581 29.3918 17.129 29.3918C15.7999 29.3918 14.5129 29.2034 13.2917 28.854ZM13.1984 28.1432C12.9991 28.2895 12.8207 28.4632 12.6681 28.6593C11.2261 28.1717 9.87024 27.4516 8.65206 26.5264C9.00173 26.1197 9.52104 25.7429 10.1752 25.4115C11.0546 26.5556 12.0761 27.4865 13.1984 28.1432ZM14.8912 27.3584C14.645 27.4259 14.4029 27.5081 14.1662 27.6047C14.038 27.6581 13.9116 27.7159 13.7873 27.7782C12.6559 27.1769 11.6227 26.2795 10.7354 25.1521C10.9942 25.0427 11.2688 24.9407 11.558 24.845C12.0615 24.6771 12.6083 24.5315 13.1886 24.4128C13.6707 25.6496 14.248 26.6558 14.8912 27.3584ZM16.8306 27.073C16.3967 27.0873 15.9774 27.1327 15.582 27.203C14.9065 26.5811 14.2944 25.5831 13.7836 24.3015C14.7913 24.1351 15.8098 24.0449 16.8306 24.0316V27.073ZM18.6766 27.203C18.2637 27.13 17.8462 27.0866 17.4274 27.073V24.0316C18.5008 24.0471 19.5266 24.141 20.4749 24.3015C19.9642 25.5818 19.3521 26.5811 18.6766 27.203ZM20.4713 27.7788C20.2871 27.6861 20.0981 27.6039 19.905 27.5325C19.7341 27.4691 19.5547 27.4113 19.368 27.3591C20.0112 26.6558 20.5885 25.6502 21.0705 24.414C21.6002 24.5235 22.1006 24.6534 22.5675 24.8027C22.9062 24.9109 23.2259 25.0284 23.5243 25.1534C22.6364 26.2802 21.6033 27.1775 20.4713 27.7788ZM21.5911 28.6593C21.4386 28.4629 21.2599 28.2892 21.0602 28.1432C22.1824 27.4859 23.2046 26.5544 24.0827 25.4115C24.7369 25.7429 25.2562 26.1197 25.6065 26.5264C24.3882 27.4511 23.0326 28.1712 21.5911 28.6593Z" fill="#295BA7"/>
</svg>
